<svg width="64" height="64" viewBox="0 0 64 64" fill="none" xmlns="http://www.w3.org/2000/svg">
  <rect width="64" height="64" rx="16" fill="#14B8A6"/>
  <path d="M17 35C17 26.716 23.716 20 32 20C40.284 20 47 26.716 47 35C47 43.284 40.284 50 32 50C23.716 50 17 43.284 17 35Z" fill="#99F6E4"/>
  <path d="M24 31C24 27.686 26.686 25 30 25H39C34.582 28.312 32.578 31.6 31.5 35.5C29.149 36.727 26.648 37.297 24 37.21V31Z" fill="white"/>
  <circle cx="39" cy="29" r="3" fill="#0F766E"/>
  <path d="M24 40C28.5 40.2 32.5 39.3 36 37.2C34.8 40.8 31.9 43.7 28 45.3C26.2 44.1 24.8 42.2 24 40Z" fill="#0F766E"/>
</svg>
